<svg xmlns="http://www.w3.org/2000/svg" width="101.507" height="184.409" viewBox="0 0 101.507 184.409">
  <path stroke-width="3.395" d="M55.24 152.916l46.267.182v31.311H0L61.423 48.241q2.193-4.915 1.595-10.012-.598-4.733-7.18-4.733-5.783 0-7.976 2.184-2.593 2.731-1.795 7.646l1.595 12.015H7.578l.598-11.105q.599-9.284 2.992-16.93Q20.34 0 56.238 0q10.57 0 18.746 2.913 8.176 2.73 12.563 6.735 4.587 3.823 7.379 9.284 2.991 5.28 3.789 9.285.997 3.823 1.197 7.827.797 12.015-4.587 24.576zM5.784 180.769h91.735v-24.03l-48.26-.182 42.477-97.393q4.786-10.923 4.188-22.937-.2-3.641-.997-7.1-.798-3.641-3.59-8.374-2.592-4.915-6.58-8.374-3.99-3.64-11.567-6.19-7.379-2.548-16.951-2.548-32.905 0-41.281 24.576-2.194 6.371-2.792 16.02l-.399 7.463h31.51l-1.197-8.01q0-7.463 2.791-10.376 3.39-3.459 10.969-3.459 5.185 0 7.777 2.367 2.792 2.184 3.39 5.46.798 5.462-1.994 11.834z" aria-label="2" font-family="Origin Sans" font-size="1267.341" font-weight="400" letter-spacing="0" word-spacing="0"/>
</svg>