<?xml version="1.0" encoding="UTF-8" standalone="no"?>
<svg
   xmlns:dc="http://purl.org/dc/elements/1.1/"
   xmlns:cc="http://creativecommons.org/ns#"
   xmlns:rdf="http://www.w3.org/1999/02/22-rdf-syntax-ns#"
   xmlns:svg="http://www.w3.org/2000/svg"
   xmlns="http://www.w3.org/2000/svg"
   xmlns:sodipodi="http://sodipodi.sourceforge.net/DTD/sodipodi-0.dtd"
   xmlns:inkscape="http://www.inkscape.org/namespaces/inkscape"
   id="SVGRoot"
   version="1.1"
   viewBox="0 0 170 385"
   height="385"
   width="170"
   sodipodi:docname="2a.svg"
   inkscape:version="0.92.5 (2060ec1f9f, 2020-04-08)">
  <sodipodi:namedview
     pagecolor="#ffffff"
     bordercolor="#666666"
     borderopacity="1"
     objecttolerance="10"
     gridtolerance="10"
     guidetolerance="10"
     inkscape:pageopacity="0"
     inkscape:pageshadow="2"
     inkscape:window-width="1920"
     inkscape:window-height="948"
     id="namedview867"
     showgrid="false"
     inkscape:zoom="1.3848273"
     inkscape:cx="-26.770445"
     inkscape:cy="197.21969"
     inkscape:window-x="1080"
     inkscape:window-y="27"
     inkscape:window-maximized="1"
     inkscape:current-layer="SVGRoot" />
  <defs
     id="defs2584" />
  <metadata
     id="metadata2587">
    <rdf:RDF>
      <cc:Work
         rdf:about="">
        <dc:format>image/svg+xml</dc:format>
        <dc:type
           rdf:resource="http://purl.org/dc/dcmitype/StillImage" />
        <dc:title></dc:title>
      </cc:Work>
    </rdf:RDF>
  </metadata>
  <g
     transform="matrix(1.5080503,0,0,1,-31.943061,200)"
     id="layer1">
    <g
       transform="matrix(1.1589958,0,0,1.0019487,19.939725,0.38974026)"
       id="text3144"
       style="font-style:normal;font-variant:normal;font-weight:normal;font-stretch:normal;font-size:373.33334351px;line-height:1.25;font-family:'Origin Sans';-inkscape-font-specification:'Origin Sans';letter-spacing:0px;word-spacing:0px;fill:#000000;fill-opacity:1;stroke:none"
       aria-label="2">
      <path
         style="stroke-width:1.44391704"
         id="path3172"
         d="M 52.708332,119.24975 95,119.62981 V 185 H 2.2135392 L 58.359374,-99.284303 c 1.336805,-6.841067 1.822916,-13.808817 1.458333,-20.903257 -0.364583,-6.58769 -2.552083,-9.88154 -6.5625,-9.88154 -3.524305,0 -5.954861,1.52024 -7.291667,4.56071 -1.579861,3.80059 -1.688525,9.50364 -1.640625,15.96249 l -0.0024,25.083906 H 9.1406227 l 0.546875,-23.183616 C 10.052081,-120.56762 10.96354,-132.34946 12.421873,-142.99112 18.012151,-180.99704 31.74479,-200 53.619791,-200 c 6.440972,0 12.152778,2.02698 17.135417,6.08095 4.982639,3.80059 8.810764,8.48799 11.484375,14.06219 2.795139,5.32083 5.043403,11.78183 6.744792,19.38302 1.822917,7.34781 2.977431,13.80882 3.463542,19.38302 0.607639,5.32083 0.972222,10.76834 1.09375,16.34255 0.486111,16.7226 -0.911459,33.825269 -4.192709,51.307993 z M 7.4999976,177.39882 H 91.354167 V 127.23101 L 47.239582,126.85093 86.067708,-76.48075 c 2.916667,-15.202369 4.192708,-31.16486 3.828125,-47.88746 -0.121527,-5.06746 -0.425347,-10.00823 -0.911458,-14.82231 -0.486111,-5.06746 -1.579861,-10.89504 -3.28125,-17.48273 -1.579861,-6.84107 -3.58507,-12.66864 -6.015625,-17.48272 -2.430556,-5.06746 -5.954862,-9.3748 -10.572917,-12.92202 -4.496528,-3.54722 -9.661459,-5.32083 -15.494792,-5.32083 -20.052084,0 -32.630209,17.10267 -37.734376,51.308 -1.336806,8.86805 -2.187501,20.01645 -2.552084,33.44521 l -0.364583,15.582431 27.706557,0.509617 0.0018,-17.232218 c 0,-10.38829 0.850694,-17.60941 2.552083,-21.66338 2.065973,-4.81409 5.407987,-7.22113 10.026042,-7.22113 3.159723,0 5.529514,1.64692 7.109375,4.94077 1.701389,3.04048 2.734376,6.84107 3.098959,11.40178 0.486111,7.60119 -0.121528,15.8358 -1.822917,24.70385 z"
         inkscape:connector-curvature="0"
         sodipodi:nodetypes="ccccccsccccccscccccccccccccccccsccccccscccc" />
    </g>
  </g>
</svg>
