<?xml version="1.0" encoding="UTF-8" standalone="no"?>
<svg
   xmlns:dc="http://purl.org/dc/elements/1.1/"
   xmlns:cc="http://creativecommons.org/ns#"
   xmlns:rdf="http://www.w3.org/1999/02/22-rdf-syntax-ns#"
   xmlns:svg="http://www.w3.org/2000/svg"
   xmlns="http://www.w3.org/2000/svg"
   xmlns:sodipodi="http://sodipodi.sourceforge.net/DTD/sodipodi-0.dtd"
   xmlns:inkscape="http://www.inkscape.org/namespaces/inkscape"
   id="SVGRoot"
   version="1.1"
   viewBox="0 0 74.449997 184.661"
   height="184.661"
   width="74.449997"
   sodipodi:docname="3.svg"
   inkscape:version="0.92.5 (2060ec1f9f, 2020-04-08)">
  <sodipodi:namedview
     pagecolor="#ffffff"
     bordercolor="#666666"
     borderopacity="1"
     objecttolerance="10"
     gridtolerance="10"
     guidetolerance="10"
     inkscape:pageopacity="0"
     inkscape:pageshadow="2"
     inkscape:window-width="2560"
     inkscape:window-height="1043"
     id="namedview8"
     showgrid="false"
     inkscape:zoom="4.3382706"
     inkscape:cx="37.224998"
     inkscape:cy="92.330498"
     inkscape:window-x="3000"
     inkscape:window-y="0"
     inkscape:window-maximized="1"
     inkscape:current-layer="SVGRoot" />
  <defs
     id="defs7066" />
  <metadata
     id="metadata7069">
    <rdf:RDF>
      <cc:Work
         rdf:about="">
        <dc:format>image/svg+xml</dc:format>
        <dc:type
           rdf:resource="http://purl.org/dc/dcmitype/StillImage" />
        <dc:title />
      </cc:Work>
    </rdf:RDF>
  </metadata>
  <g
     transform="translate(-129.70771,-349.65749)"
     id="layer1">
    <g
       aria-label="3"
       transform="scale(0.92349108,1.0828475)"
       style="font-style:normal;font-variant:normal;font-weight:normal;font-stretch:normal;font-size:344.25698853px;line-height:1.25;font-family:'Origin Sans';-inkscape-font-specification:'Origin Sans';letter-spacing:0px;word-spacing:0px;fill:#000000;fill-opacity:1;stroke:none;stroke-width:0.92211688"
       id="text5717">
      <path
         d="m 210.88515,408.21458 q 8.57281,13.95182 9.58137,31.76981 1.00857,13.27944 0.33619,18.65846 -1.51285,14.28801 -10.92612,24.54176 -9.24519,10.08565 -26.3908,10.25374 h -2.68951 q -16.64132,0 -27.73554,-9.91756 -12.60707,-11.26231 -12.60707,-32.10599 v -10.92613 h 35.80407 l -1.00857,11.93469 q 0,4.53855 1.68095,6.38758 1.00856,1.51285 4.87473,1.68094 3.19379,0 4.53854,-1.34475 0.50429,-0.50428 0.50429,-2.18522 v -13.44754 q -0.33619,-7.22805 -3.36189,-13.27945 -2.8576,-6.05139 -9.91756,-6.89186 l -9.41327,-1.17666 v -27.90364 l 9.41327,-1.34476 q 12.43898,-1.51284 13.27945,-20.00321 v -13.44754 q 0,-1.68094 -0.50429,-2.18522 -1.51284,-1.51285 -4.87473,-1.51285 -3.36188,0.16809 -4.53854,1.84903 -1.68095,1.84904 -1.68095,6.55568 l 1.00857,11.7666 h -35.80407 v -10.92613 q 0,-20.67559 12.60707,-32.106 12.10278,-10.92612 30.42505,-9.91756 16.97752,0.1681 26.3908,10.42184 9.41327,10.25375 10.92612,24.37367 0.1681,1.84904 0.1681,4.53854 0.16809,2.52142 0,5.04283 0,2.35332 -0.1681,4.37045 -0.16809,2.01713 -0.16809,3.36188 l -0.1681,1.51285 q 0,1.34476 -0.50428,5.21092 -0.50428,3.86617 -2.8576,12.10279 -2.35332,8.23662 -6.21949,14.28801 z m 6.55568,50.09208 q 0.50428,-6.05139 -0.33619,-18.15418 -1.68094,-18.99465 -9.58137,-31.09743 l -0.67238,-0.84047 0.67238,-1.00857 q 3.69807,-5.7152 6.05139,-13.61563 2.52141,-8.06852 3.0257,-12.10278 0.50428,-4.03427 0.50428,-5.21093 l 0.16809,-0.67237 q 0,-0.67238 0,-1.84904 0.1681,-1.17666 0.1681,-2.52141 0.16809,-1.51285 0.16809,-3.19379 0,-1.84904 0,-3.52998 0,-1.68094 0,-3.36189 0,-1.68094 -0.16809,-3.02569 -1.51285,-13.11135 -9.91756,-22.35654 -8.40471,-9.24518 -24.03748,-9.41327 -17.14561,-1.00857 -28.23983,8.90899 -11.43041,10.42184 -11.43041,29.75268 v 7.56424 h 28.74412 l -0.67238,-8.06852 q 0,-6.05139 2.52141,-9.07709 2.18523,-2.68951 7.05996,-3.0257 4.70664,0 7.22805,2.52142 1.51285,1.51284 1.51285,4.53854 v 13.44754 q -1.34475,21.51606 -16.30514,23.3651 l -6.55567,0.84047 v 22.18844 l 6.55567,0.67237 q 14.96039,1.84904 16.30514,23.3651 v 13.61564 q 0,3.02569 -1.51285,4.53854 -2.35332,2.35332 -7.05995,2.35332 -5.04283,-0.33619 -7.22806,-2.8576 -1.34475,-1.51285 -2.01713,-3.69808 -0.50428,-2.18522 -0.50428,-3.69807 v -1.51285 l 0.67238,-8.23661 h -28.74412 v 7.56424 q 0,19.16274 11.43041,29.58458 10.08565,9.07709 25.55032,9.07709 h 2.52142 q 15.63276,-0.16809 24.03747,-9.41328 8.57281,-9.41327 10.08566,-22.35653 z"
         style="stroke-width:0.92211688"
         id="path815" />
    </g>
  </g>
</svg>
