<?xml version="1.0" encoding="UTF-8" standalone="no"?>
<svg
   xmlns:dc="http://purl.org/dc/elements/1.1/"
   xmlns:cc="http://creativecommons.org/ns#"
   xmlns:rdf="http://www.w3.org/1999/02/22-rdf-syntax-ns#"
   xmlns:svg="http://www.w3.org/2000/svg"
   xmlns="http://www.w3.org/2000/svg"
   xmlns:sodipodi="http://sodipodi.sourceforge.net/DTD/sodipodi-0.dtd"
   xmlns:inkscape="http://www.inkscape.org/namespaces/inkscape"
   id="SVGRoot"
   version="1.1"
   viewBox="0 0 180 385"
   height="385"
   width="180"
   sodipodi:docname="3a.svg"
   inkscape:version="0.92.5 (2060ec1f9f, 2020-04-08)">
  <sodipodi:namedview
     pagecolor="#ffffff"
     bordercolor="#666666"
     borderopacity="1"
     objecttolerance="10"
     gridtolerance="10"
     guidetolerance="10"
     inkscape:pageopacity="0"
     inkscape:pageshadow="2"
     inkscape:window-width="1920"
     inkscape:window-height="948"
     id="namedview867"
     showgrid="false"
     inkscape:zoom="1.9584416"
     inkscape:cx="75"
     inkscape:cy="192.5"
     inkscape:window-x="1080"
     inkscape:window-y="27"
     inkscape:window-maximized="1"
     inkscape:current-layer="SVGRoot" />
  <defs
     id="defs3201" />
  <metadata
     id="metadata3204">
    <rdf:RDF>
      <cc:Work
         rdf:about="">
        <dc:format>image/svg+xml</dc:format>
        <dc:type
           rdf:resource="http://purl.org/dc/dcmitype/StillImage" />
        <dc:title></dc:title>
      </cc:Work>
    </rdf:RDF>
  </metadata>
  <g
     transform="matrix(1.4688329,0,0,1,-18.567639,200)"
     id="layer1">
    <g
       id="text3761"
       style="font-style:normal;font-variant:normal;font-weight:normal;font-stretch:normal;font-size:373.39776611px;line-height:1.25;font-family:'Origin Sans';-inkscape-font-specification:'Origin Sans';letter-spacing:0px;word-spacing:0px;fill:#000000;fill-opacity:1;stroke:none;stroke-width:1.00017262"
       transform="matrix(1.2579743,0,0,2.08144,10.471825,-199.99999)"
       aria-label="3">
      <path
         id="path3763"
         style="stroke-width:1.00017262"
         d="m 83.967612,92.530268 q 9.298479,15.132822 10.392418,34.459072 1.093939,14.40353 0.364646,20.23787 -1.640908,15.49746 -11.851003,26.61917 -10.027772,10.93939 -28.624731,11.12171 h -2.91717 q -18.04999,0 -30.083316,-10.75706 Q 7.5742211,161.99538 7.5742211,139.38731 v -11.851 H 46.409047 l -1.093938,12.94494 q 0,4.92273 1.823231,6.92828 1.093939,1.64091 5.287371,1.82323 3.464139,0 4.922724,-1.45858 0.546969,-0.54697 0.546969,-2.3702 v -14.58586 q -0.364646,-7.83989 -3.646462,-14.40352 -3.099493,-6.56363 -10.757065,-7.47525 L 33.281782,107.66309 V 77.397448 L 43.491877,75.938863 Q 56.983789,74.297955 57.895404,54.242411 v -14.58585 q 0,-1.823231 -0.546969,-2.370201 -1.640908,-1.640908 -5.287371,-1.640908 -3.646462,0.182323 -4.922724,2.005554 -1.823231,2.005555 -1.823231,7.110602 l 1.093938,12.762619 H 7.5742211 V 45.673224 q 0,-22.425745 13.6742349,-34.823717 Q 34.375721,-1.0014967 54.248942,0.0924421 72.663578,0.27476522 82.873673,11.396476 93.083768,22.518187 94.724676,37.83333 q 0.182323,2.005554 0.182323,4.922724 0.182324,2.734847 0,5.469694 0,2.552524 -0.182323,4.740401 -0.182323,2.187878 -0.182323,3.646463 L 94.36003,58.25352 q 0,1.458585 -0.546969,5.652017 -0.54697,4.193432 -3.099494,13.127265 -2.552523,8.933833 -6.745955,15.497466 z m 7.110602,54.332292 q 0.546969,-6.56363 -0.364647,-19.6909 -1.823231,-20.60251 -10.392418,-33.729776 l -0.729292,-0.911616 0.729292,-1.093939 q 4.011109,-6.198986 6.563633,-14.768173 2.734847,-8.75151 3.281816,-13.127265 0.546969,-4.375755 0.546969,-5.652017 l 0.182324,-0.729293 q 0,-0.729292 0,-2.005554 0.182323,-1.276262 0.182323,-2.734847 0.182323,-1.640908 0.182323,-3.46414 0,-2.005554 0,-3.828785 0,-1.823232 0,-3.646463 0,-1.823231 -0.182323,-3.281816 Q 89.437306,23.976772 80.321149,13.949 71.204993,3.9212278 54.248942,3.7389047 35.651983,2.6449659 23.618656,13.40203 11.220684,24.706064 11.220684,45.673224 v 8.204541 h 31.177255 l -0.729293,-8.75151 q 0,-6.563633 2.734847,-9.845449 2.370201,-2.91717 7.657571,-3.281817 5.105048,0 7.839895,2.734847 1.640908,1.640909 1.640908,4.922725 v 14.58585 q -1.458585,23.33736 -17.685343,25.342915 l -7.110602,0.911616 v 24.066648 l 7.110602,0.7293 q 16.226758,2.00555 17.685343,25.34291 v 14.76818 q 0,3.28181 -1.640908,4.92272 -2.552524,2.55252 -7.657572,2.55252 -5.469693,-0.36464 -7.839894,-3.09949 -1.458585,-1.64091 -2.187878,-4.01111 -0.546969,-2.3702 -0.546969,-4.01111 v -1.64091 l 0.729293,-8.93383 H 11.220684 v 8.20454 q 0,20.78484 12.397972,32.08887 10.939388,9.84545 27.713116,9.84545 h 2.734847 q 16.956051,-0.18232 26.072207,-10.21009 9.29848,-10.2101 10.939388,-24.24898 z"
         inkscape:connector-curvature="0" />
    </g>
  </g>
</svg>
